<svg width="48" height="48" viewBox="0 0 48 48" fill="none" xmlns="http://www.w3.org/2000/svg">
<rect width="48" height="48" rx="24" fill="#0A0A0A"/>
<rect width="15.1497" height="19.7111" transform="matrix(-0.71306 0.701103 -0.701074 -0.713089 27.6211 19.0566)" stroke="#0A0A0A"/>
<path d="M20.7039 13.2928L19.8425 12.0194L18.184 12.0009L10.6172 9.38891L5.3373 14.1876L6.15048 16.2859L7.40336 18.8313L11.4054 23.2992L13.0639 23.3177L14.9629 22.707L17.4974 21.4716L18.9646 20.4216L22.5444 22.7917L23.8153 21.5421L17.3007 14.5186L19.8279 14.5468L20.7039 13.2928Z" fill="white"/>
<path d="M24.4268 20.9072L23.7913 21.5319L16.8818 14.5041L17.5173 13.8793L18.1454 14.5182L18.7809 13.8934L19.409 14.5323L18.7736 15.1571L24.4268 20.9072ZM11.7763 23.2935L7.37937 18.8212L6.74392 19.446L11.1408 23.9183L11.7763 23.2935ZM21.9435 13.2968L20.0591 11.3801L19.4236 12.0049L20.6799 13.2827L19.409 14.5323L20.0371 15.1712L21.9435 13.2968ZM16.2683 11.3378L17.5246 12.6156L18.1601 11.9908L16.9038 10.713L16.2683 11.3378ZM14.3766 10.6848L15.6329 11.9626L16.2683 11.3378L15.0121 10.06L14.3766 10.6848ZM12.4849 10.0318L10.6005 8.11509L4.24602 14.363L6.12649 16.2757L6.76194 15.6509L5.5096 14.3771L10.5932 9.37878L11.8495 10.6566L12.4849 10.0318L13.7412 11.3096L14.3766 10.6848L13.1204 9.40699L12.4849 10.0318ZM6.13042 16.2797L5.49497 16.9045L7.37937 18.8212L8.01482 18.1964L6.13042 16.2797ZM18.1601 11.9908L18.7882 12.6297L19.4236 12.0049L18.7955 11.366L18.1601 11.9908ZM13.0399 23.3076L12.4117 22.6687L11.7763 23.2935L12.4044 23.9324L13.0399 23.3076ZM14.9389 22.6969L12.4264 20.1413L11.7909 20.7661L13.6753 22.6828L13.0399 23.3076L13.668 23.9465L14.9389 22.6969ZM17.4734 21.4614L14.9609 18.9058L14.3254 19.5306L16.2098 21.4473L14.9389 22.6969L15.567 23.3358L17.4734 21.4614ZM19.3724 20.8507L21.885 23.4063L22.5204 22.7815L16.8672 17.0315L16.2318 17.6562L18.7443 20.2118L17.4734 21.4614L18.1015 22.1003L19.3724 20.8507ZM24.4194 22.1708L23.7913 21.5319L22.5204 22.7815L23.1485 23.4204L24.4194 22.1708Z" fill="#262626"/>
<rect width="12.324" height="19.5136" transform="matrix(0.937763 -0.347276 0.34725 0.937773 24.666 23.4414)" stroke="#0A0A0A"/>
<path d="M25.8027 24.6641L27.3053 24.6552L39.1827 30.1134L40.0343 31.304L36.1819 32.7306L36.6277 33.9345L37.3634 34.0728L39.0398 35.6423L39.753 37.5686L37.8269 38.2819L34.4742 35.1427L33.5111 35.4994L32.2982 38.1389L31.1456 38.908L25.8027 24.6641Z" fill="white"/>
<path d="M39.1829 30.1126L40.146 29.7559L40.8592 31.6822L37.0069 33.1088L37.3636 34.0719L36.4005 34.4285L35.6872 32.5023L39.5395 31.0757L39.1829 30.1126ZM39.1829 30.1126L38.8263 29.1494L37.8632 29.5061L38.2198 30.4692L39.1829 30.1126ZM37.8632 29.5061L37.5065 28.543L36.5435 28.8996L36.9001 29.8627L37.8632 29.5061ZM36.5435 28.8996L36.1868 27.9365L35.2237 28.2932L35.5804 29.2563L36.5435 28.8996ZM35.2237 28.2932L34.8671 27.33L33.904 27.6867L34.2607 28.6498L35.2237 28.2932ZM33.904 27.6867L33.5474 26.7236L32.5843 27.0802L32.9409 28.0433L33.904 27.6867ZM32.5843 27.0802L32.2277 26.1171L31.2646 26.4738L31.6212 27.4369L32.5843 27.0802ZM31.2646 26.4738L30.908 25.5106L29.9449 25.8673L30.3015 26.8304L31.2646 26.4738ZM29.9449 25.8673L29.5882 24.9042L28.6252 25.2608L28.9818 26.2239L29.9449 25.8673ZM28.6252 25.2608L28.2685 24.2977L27.3054 24.6543L27.6621 25.6175L28.6252 25.2608ZM26.3424 25.011L27.3054 24.6543L26.9488 23.6912L25.9857 24.0479L25.6291 23.0848L24.666 23.4414L30.7288 39.8144L32.655 39.1011L32.2984 38.138L31.3353 38.4947L26.3424 25.011ZM33.1546 34.5354L33.5112 35.4985L34.4743 35.1418L34.1177 34.1787L33.1546 34.5354ZM32.9048 36.8183L33.8679 36.4616L33.5112 35.4985L32.5482 35.8551L32.9048 36.8183ZM32.2984 38.138L33.2614 37.7814L32.9048 36.8183L31.9417 37.1749L32.2984 38.138ZM34.4743 35.1418L35.1876 37.0681L36.1507 36.7114L35.4374 34.7852L34.4743 35.1418ZM36.1507 36.7114L36.8639 38.6377L37.827 38.281L37.1138 36.3548L36.1507 36.7114ZM40.7163 37.2111L40.003 35.2848L39.0399 35.6415L39.7532 37.5677L40.7163 37.2111ZM39.0399 35.6415L38.3266 33.7152L37.3636 34.0719L38.0768 35.9981L39.0399 35.6415ZM38.1837 39.2441L40.1098 38.5308L39.7532 37.5677L37.827 38.281L38.1837 39.2441Z" fill="#262626"/>
</svg>