<svg width="48" height="48" viewBox="0 0 48 48" fill="none" xmlns="http://www.w3.org/2000/svg">
<circle cx="24" cy="24" r="24" fill="black"/>
<path d="M20.9873 14.467L20.2128 13.3198L18.7158 13.3071L11.8918 10.9679L7.11412 15.3118L7.84307 17.2036L8.96784 19.498L12.5696 23.5208L14.0665 23.5335L15.7822 22.9777L18.073 21.8565L19.4 20.9053L22.6256 23.0357L23.7759 21.9048L17.9123 15.5816L20.1935 15.6009L20.9873 14.467Z" fill="black"/>
<path d="M24.3509 21.3393L23.7758 21.9047L17.5559 15.5784L18.131 15.013L18.6965 15.5881L19.2716 15.0227L19.837 15.5978L19.2619 16.1632L24.3509 21.3393ZM12.926 23.5237L8.96781 19.4979L8.3927 20.0634L12.3508 24.0892L12.926 23.5237ZM22.1278 14.4765L20.4315 12.7512L19.8564 13.3166L20.9873 14.4669L19.837 15.5978L20.4025 16.1729L22.1278 14.4765ZM17.0098 12.7222L18.1407 13.8724L18.7158 13.307L17.5849 12.1567L17.0098 12.7222ZM15.3038 12.1374L16.4347 13.2876L17.0098 12.7222L15.8789 11.572L15.3038 12.1374ZM13.5977 11.5526L11.9014 9.82728L6.15024 15.4818L7.84305 17.2035L8.41816 16.6381L7.2908 15.4914L11.8917 10.9678L13.0226 12.1181L13.5977 11.5526L14.7286 12.7029L15.3038 12.1374L14.1729 10.9872L13.5977 11.5526ZM7.84658 17.2071L7.27147 17.7726L8.96781 19.4979L9.54293 18.9325L7.84658 17.2071ZM18.7158 13.307L19.2812 13.8821L19.8564 13.3166L19.2909 12.7415L18.7158 13.307ZM14.0665 23.5334L13.5011 22.9583L12.926 23.5237L13.4914 24.0988L14.0665 23.5334ZM15.7822 22.9776L13.5204 20.6771L12.9453 21.2426L14.6416 22.9679L14.0665 23.5334L14.632 24.1085L15.7822 22.9776ZM18.073 21.8564L15.8112 19.5559L15.2361 20.1214L16.9324 21.8467L15.7822 22.9776L16.3477 23.5527L18.073 21.8564ZM19.7887 21.3006L22.0505 23.6011L22.6256 23.0356L17.5366 17.8596L16.9614 18.425L19.2232 20.7255L18.073 21.8564L18.6385 22.4315L19.7887 21.3006ZM24.3413 22.4798L23.7758 21.9047L22.6256 23.0356L23.191 23.6107L24.3413 22.4798Z" fill="white"/>
<path d="M26.0492 25.509L27.4359 25.5009L38.3975 30.538L39.1833 31.6367L35.6281 32.9533L36.0395 34.0643L36.7184 34.1919L38.2655 35.6404L38.9238 37.418L37.1462 38.0763L34.052 35.1793L33.1632 35.5084L32.0438 37.9443L30.9801 38.6541L26.0492 25.509Z" fill="black"/>
<path d="M38.3975 30.5381L39.2863 30.2089L39.9446 31.9866L36.3893 33.3031L36.7184 34.1919L35.8296 34.5211L35.1714 32.7434L38.7266 31.4269L38.3975 30.5381ZM38.3975 30.5381L38.0683 29.6493L37.1795 29.9784L37.5087 30.8672L38.3975 30.5381ZM37.1795 29.9784L36.8504 29.0896L35.9616 29.4187L36.2907 30.3075L37.1795 29.9784ZM35.9616 29.4187L35.6324 28.5299L34.7436 28.859L35.0728 29.7479L35.9616 29.4187ZM34.7436 28.859L34.4145 27.9702L33.5257 28.2994L33.8548 29.1882L34.7436 28.859ZM33.5257 28.2994L33.1965 27.4105L32.3077 27.7397L32.6369 28.6285L33.5257 28.2994ZM32.3077 27.7397L31.9786 26.8509L31.0898 27.18L31.4189 28.0688L32.3077 27.7397ZM31.0898 27.18L30.7606 26.2912L29.8718 26.6203L30.2009 27.5091L31.0898 27.18ZM29.8718 26.6203L29.5427 25.7315L28.6539 26.0606L28.983 26.9495L29.8718 26.6203ZM28.6539 26.0606L28.3247 25.1718L27.4359 25.501L27.765 26.3898L28.6539 26.0606ZM26.5471 25.8301L27.4359 25.501L27.1068 24.6121L26.218 24.9413L25.8888 24.0525L25 24.3816L30.5953 39.4915L32.3729 38.8332L32.0438 37.9444L31.155 38.2735L26.5471 25.8301ZM32.834 34.6197L33.1632 35.5085L34.052 35.1794L33.7229 34.2905L32.834 34.6197ZM32.6035 36.7264L33.4923 36.3973L33.1632 35.5085L32.2744 35.8376L32.6035 36.7264ZM32.0438 37.9444L32.9326 37.6153L32.6035 36.7264L31.7147 37.0556L32.0438 37.9444ZM34.052 35.1794L34.7103 36.957L35.5991 36.6278L34.9408 34.8502L34.052 35.1794ZM35.5991 36.6278L36.2574 38.4055L37.1462 38.0763L36.4879 36.2987L35.5991 36.6278ZM39.8126 37.0889L39.1543 35.3113L38.2655 35.6404L38.9238 37.4181L39.8126 37.0889ZM38.2655 35.6404L37.6073 33.8628L36.7184 34.1919L37.3767 35.9696L38.2655 35.6404ZM37.4753 38.9652L39.2529 38.3069L38.9238 37.4181L37.1462 38.0763L37.4753 38.9652Z" fill="white"/>
</svg>
