<svg width="1234" height="250" viewBox="0 0 1234 250" fill="none" xmlns="http://www.w3.org/2000/svg">
<path d="M295.336 163V111.544H308.296L308.776 123.928L307.432 123.352C308.136 120.6 309.192 118.264 310.6 116.344C312.072 114.424 313.832 112.952 315.88 111.928C317.928 110.904 320.168 110.392 322.6 110.392C326.888 110.392 330.344 111.64 332.968 114.136C335.656 116.632 337.384 119.992 338.152 124.216L336.328 124.312C336.904 121.304 337.896 118.776 339.304 116.728C340.776 114.616 342.568 113.048 344.68 112.024C346.792 110.936 349.16 110.392 351.784 110.392C355.368 110.392 358.44 111.128 361 112.6C363.56 114.072 365.544 116.28 366.952 119.224C368.36 122.104 369.064 125.656 369.064 129.88V163H354.664V133.912C354.664 129.88 354.056 126.872 352.84 124.888C351.624 122.84 349.64 121.816 346.888 121.816C345.16 121.816 343.688 122.296 342.472 123.256C341.256 124.216 340.296 125.624 339.592 127.48C338.952 129.272 338.632 131.48 338.632 134.104V163H325.672V134.104C325.672 130.136 325.096 127.096 323.944 124.984C322.792 122.872 320.808 121.816 317.992 121.816C316.264 121.816 314.76 122.296 313.48 123.256C312.264 124.216 311.336 125.624 310.696 127.48C310.056 129.336 309.736 131.544 309.736 134.104V163H295.336ZM380.93 163V111.544H395.33V163H380.93ZM380.642 105.208V93.688H395.522V105.208H380.642ZM430.32 164.152C425.072 164.152 420.496 163.064 416.592 160.888C412.688 158.648 409.648 155.512 407.472 151.48C405.296 147.448 404.208 142.712 404.208 137.272C404.208 131.832 405.296 127.128 407.472 123.16C409.648 119.128 412.688 115.992 416.592 113.752C420.496 111.512 425.072 110.392 430.32 110.392C434.864 110.392 438.928 111.192 442.512 112.792C446.16 114.392 449.104 116.696 451.344 119.704C453.584 122.712 454.96 126.328 455.472 130.552L440.592 131.224C440.144 128.024 438.992 125.624 437.136 124.024C435.344 122.36 433.072 121.528 430.32 121.528C426.736 121.528 423.952 122.904 421.968 125.656C419.984 128.408 418.992 132.28 418.992 137.272C418.992 142.264 419.984 146.168 421.968 148.984C423.952 151.736 426.736 153.112 430.32 153.112C433.072 153.112 435.376 152.28 437.232 150.616C439.088 148.888 440.208 146.296 440.592 142.84L455.472 143.416C455.024 147.64 453.68 151.32 451.44 154.456C449.264 157.528 446.352 159.928 442.704 161.656C439.12 163.32 434.992 164.152 430.32 164.152ZM463.43 163V94.84H477.83V123.544H475.91C476.422 120.536 477.414 118.072 478.886 116.152C480.422 114.232 482.31 112.792 484.55 111.832C486.854 110.872 489.35 110.392 492.038 110.392C495.878 110.392 499.078 111.224 501.638 112.888C504.198 114.552 506.118 116.856 507.398 119.8C508.742 122.744 509.414 126.104 509.414 129.88V163H495.014V133.336C495.014 129.496 494.406 126.616 493.19 124.696C492.038 122.776 490.054 121.816 487.238 121.816C484.294 121.816 481.99 122.808 480.326 124.792C478.662 126.776 477.83 129.752 477.83 133.72V163H463.43ZM544.035 164.152C538.787 164.152 534.211 163.064 530.307 160.888C526.467 158.648 523.459 155.512 521.283 151.48C519.171 147.448 518.115 142.712 518.115 137.272C518.115 131.832 519.171 127.128 521.283 123.16C523.459 119.128 526.467 115.992 530.307 113.752C534.147 111.512 538.691 110.392 543.939 110.392C549.059 110.392 553.507 111.512 557.283 113.752C561.059 115.992 563.971 119.192 566.019 123.352C568.131 127.512 569.187 132.472 569.187 138.232V141.112H532.995C533.187 145.208 534.275 148.248 536.259 150.232C538.307 152.216 540.995 153.208 544.323 153.208C546.755 153.208 548.771 152.696 550.371 151.672C552.035 150.648 553.219 149.08 553.923 146.968L568.419 147.832C567.075 152.952 564.227 156.952 559.875 159.832C555.523 162.712 550.243 164.152 544.035 164.152ZM532.995 132.28H554.403C554.211 128.504 553.155 125.688 551.235 123.832C549.379 121.976 546.947 121.048 543.939 121.048C540.931 121.048 538.435 122.04 536.451 124.024C534.531 125.944 533.379 128.696 532.995 132.28ZM591.995 163C587.771 163 584.475 161.944 582.107 159.832C579.739 157.72 578.555 154.296 578.555 149.56V94.84H592.955V148.024C592.955 149.56 593.307 150.648 594.011 151.288C594.715 151.928 595.739 152.248 597.083 152.248H600.539V163H591.995ZM623.725 164.152C618.413 164.152 614.061 162.936 610.669 160.504C607.341 158.008 605.677 154.552 605.677 150.136C605.677 145.592 607.085 142.104 609.901 139.672C612.781 137.176 617.005 135.352 622.573 134.2L639.181 130.936C639.181 127.608 638.413 125.112 636.877 123.448C635.405 121.72 633.261 120.856 630.445 120.856C627.693 120.856 625.549 121.496 624.013 122.776C622.477 123.992 621.485 125.816 621.037 128.248L606.541 127.576C607.501 121.944 610.029 117.688 614.125 114.808C618.285 111.864 623.725 110.392 630.445 110.392C638.125 110.392 643.885 112.216 647.725 115.864C651.629 119.512 653.581 124.856 653.581 131.896V149.464C653.581 150.936 653.805 151.928 654.253 152.44C654.765 152.888 655.501 153.112 656.461 153.112H657.901V163C657.453 163.128 656.717 163.256 655.693 163.384C654.733 163.512 653.773 163.576 652.813 163.576C650.765 163.576 648.845 163.224 647.053 162.52C645.325 161.816 643.917 160.632 642.829 158.968C641.741 157.24 641.197 154.808 641.197 151.672L642.445 152.632C641.805 154.936 640.653 156.952 638.989 158.68C637.389 160.408 635.277 161.752 632.653 162.712C630.093 163.672 627.117 164.152 623.725 164.152ZM627.181 154.264C629.549 154.264 631.629 153.816 633.421 152.92C635.213 151.96 636.621 150.584 637.645 148.792C638.669 147 639.181 144.888 639.181 142.456V139.96L627.469 142.456C625.165 142.904 623.405 143.672 622.189 144.76C621.037 145.784 620.461 147.128 620.461 148.792C620.461 150.52 621.037 151.864 622.189 152.824C623.341 153.784 625.005 154.264 627.181 154.264ZM665.461 163V111.544H678.421L678.997 126.616L677.173 126.136C677.685 122.296 678.709 119.224 680.245 116.92C681.845 114.616 683.829 112.952 686.197 111.928C688.565 110.904 691.157 110.392 693.973 110.392C697.685 110.392 700.821 111.192 703.381 112.792C706.005 114.392 707.989 116.664 709.333 119.608C710.741 122.488 711.445 125.912 711.445 129.88V163H697.045V134.68C697.045 131.928 696.821 129.592 696.373 127.672C695.925 125.752 695.125 124.312 693.973 123.352C692.821 122.328 691.221 121.816 689.173 121.816C686.165 121.816 683.861 122.936 682.261 125.176C680.661 127.352 679.861 130.52 679.861 134.68V163H665.461ZM745.97 178.552C741.042 178.552 736.914 177.944 733.586 176.728C730.322 175.512 727.698 173.816 725.714 171.64C723.794 169.464 722.45 166.968 721.682 164.152L736.466 163.096C736.978 164.76 737.938 166.072 739.346 167.032C740.818 167.992 743.026 168.472 745.97 168.472C749.426 168.472 752.05 167.64 753.842 165.976C755.698 164.376 756.626 161.784 756.626 158.2V152.728C755.41 155.096 753.458 157.016 750.77 158.488C748.082 159.896 745.074 160.6 741.746 160.6C737.522 160.6 733.778 159.576 730.514 157.528C727.25 155.416 724.69 152.504 722.834 148.792C721.042 145.016 720.146 140.6 720.146 135.544C720.146 130.616 721.042 126.264 722.834 122.488C724.69 118.712 727.218 115.768 730.418 113.656C733.682 111.48 737.394 110.392 741.554 110.392C745.33 110.392 748.498 111.224 751.058 112.888C753.682 114.552 755.666 116.76 757.01 119.512V111.544H771.122V157.912C771.122 162.52 770.066 166.328 767.954 169.336C765.842 172.408 762.898 174.712 759.122 176.248C755.346 177.784 750.962 178.552 745.97 178.552ZM745.874 149.944C749.202 149.944 751.826 148.664 753.746 146.104C755.73 143.544 756.722 139.992 756.722 135.448C756.722 132.44 756.274 129.848 755.378 127.672C754.546 125.496 753.298 123.832 751.634 122.68C750.034 121.528 748.114 120.952 745.874 120.952C742.418 120.952 739.73 122.264 737.81 124.888C735.89 127.512 734.93 131.032 734.93 135.448C734.93 139.928 735.922 143.48 737.906 146.104C739.89 148.664 742.546 149.944 745.874 149.944ZM805.972 164.152C800.724 164.152 796.148 163.064 792.244 160.888C788.404 158.648 785.396 155.512 783.22 151.48C781.108 147.448 780.052 142.712 780.052 137.272C780.052 131.832 781.108 127.128 783.22 123.16C785.396 119.128 788.404 115.992 792.244 113.752C796.084 111.512 800.628 110.392 805.876 110.392C810.996 110.392 815.444 111.512 819.22 113.752C822.996 115.992 825.908 119.192 827.956 123.352C830.068 127.512 831.124 132.472 831.124 138.232V141.112H794.932C795.124 145.208 796.212 148.248 798.196 150.232C800.244 152.216 802.932 153.208 806.26 153.208C808.692 153.208 810.708 152.696 812.308 151.672C813.972 150.648 815.156 149.08 815.86 146.968L830.356 147.832C829.012 152.952 826.164 156.952 821.812 159.832C817.46 162.712 812.18 164.152 805.972 164.152ZM794.932 132.28H816.34C816.148 128.504 815.092 125.688 813.172 123.832C811.316 121.976 808.884 121.048 805.876 121.048C802.868 121.048 800.372 122.04 798.388 124.024C796.468 125.944 795.316 128.696 794.932 132.28ZM853.932 163C849.708 163 846.412 161.944 844.044 159.832C841.676 157.72 840.492 154.296 840.492 149.56V94.84H854.892V148.024C854.892 149.56 855.244 150.648 855.948 151.288C856.652 151.928 857.676 152.248 859.02 152.248H862.476V163H853.932ZM892.977 164.152C887.729 164.152 883.153 163.064 879.249 160.888C875.345 158.648 872.305 155.512 870.129 151.48C867.953 147.448 866.865 142.712 866.865 137.272C866.865 131.832 867.953 127.128 870.129 123.16C872.305 119.128 875.345 115.992 879.249 113.752C883.153 111.512 887.729 110.392 892.977 110.392C898.225 110.392 902.801 111.512 906.705 113.752C910.609 115.992 913.649 119.128 915.825 123.16C918.001 127.128 919.089 131.832 919.089 137.272C919.089 142.712 918.001 147.448 915.825 151.48C913.649 155.512 910.609 158.648 906.705 160.888C902.801 163.064 898.225 164.152 892.977 164.152ZM892.977 153.112C896.561 153.112 899.345 151.736 901.329 148.984C903.313 146.168 904.305 142.264 904.305 137.272C904.305 132.28 903.313 128.408 901.329 125.656C899.345 122.84 896.561 121.432 892.977 121.432C889.393 121.432 886.609 122.84 884.625 125.656C882.641 128.408 881.649 132.28 881.649 137.272C881.649 142.264 882.641 146.168 884.625 148.984C886.609 151.736 889.393 153.112 892.977 153.112ZM926.208 163V148.312H941.856V163H926.208ZM964.182 163C959.958 163 956.662 161.944 954.294 159.832C951.926 157.72 950.742 154.296 950.742 149.56V94.84H965.142V148.024C965.142 149.56 965.494 150.648 966.198 151.288C966.902 151.928 967.926 152.248 969.27 152.248H972.726V163H964.182ZM995.913 164.152C990.601 164.152 986.249 162.936 982.857 160.504C979.529 158.008 977.865 154.552 977.865 150.136C977.865 145.592 979.273 142.104 982.089 139.672C984.969 137.176 989.193 135.352 994.761 134.2L1011.37 130.936C1011.37 127.608 1010.6 125.112 1009.06 123.448C1007.59 121.72 1005.45 120.856 1002.63 120.856C999.881 120.856 997.737 121.496 996.201 122.776C994.665 123.992 993.673 125.816 993.225 128.248L978.729 127.576C979.689 121.944 982.217 117.688 986.312 114.808C990.473 111.864 995.913 110.392 1002.63 110.392C1010.31 110.392 1016.07 112.216 1019.91 115.864C1023.82 119.512 1025.77 124.856 1025.77 131.896V149.464C1025.77 150.936 1025.99 151.928 1026.44 152.44C1026.95 152.888 1027.69 153.112 1028.65 153.112H1030.09V163C1029.64 163.128 1028.9 163.256 1027.88 163.384C1026.92 163.512 1025.96 163.576 1025 163.576C1022.95 163.576 1021.03 163.224 1019.24 162.52C1017.51 161.816 1016.1 160.632 1015.02 158.968C1013.93 157.24 1013.38 154.808 1013.38 151.672L1014.63 152.632C1013.99 154.936 1012.84 156.952 1011.18 158.68C1009.58 160.408 1007.46 161.752 1004.84 162.712C1002.28 163.672 999.305 164.152 995.913 164.152ZM999.369 154.264C1001.74 154.264 1003.82 153.816 1005.61 152.92C1007.4 151.96 1008.81 150.584 1009.83 148.792C1010.86 147 1011.37 144.888 1011.37 142.456V139.96L999.656 142.456C997.353 142.904 995.593 143.672 994.377 144.76C993.225 145.784 992.649 147.128 992.649 148.792C992.649 150.52 993.225 151.864 994.377 152.824C995.529 153.784 997.193 154.264 999.369 154.264ZM1037.65 163V111.544H1050.61L1051.18 126.616L1049.36 126.136C1049.87 122.296 1050.9 119.224 1052.43 116.92C1054.03 114.616 1056.02 112.952 1058.38 111.928C1060.75 110.904 1063.34 110.392 1066.16 110.392C1069.87 110.392 1073.01 111.192 1075.57 112.792C1078.19 114.392 1080.18 116.664 1081.52 119.608C1082.93 122.488 1083.63 125.912 1083.63 129.88V163H1069.23V134.68C1069.23 131.928 1069.01 129.592 1068.56 127.672C1068.11 125.752 1067.31 124.312 1066.16 123.352C1065.01 122.328 1063.41 121.816 1061.36 121.816C1058.35 121.816 1056.05 122.936 1054.45 125.176C1052.85 127.352 1052.05 130.52 1052.05 134.68V163H1037.65ZM1113.45 164.152C1109.1 164.152 1105.33 163.064 1102.13 160.888C1098.99 158.648 1096.56 155.544 1094.83 151.576C1093.17 147.544 1092.33 142.776 1092.33 137.272C1092.33 131.768 1093.2 127.032 1094.93 123.064C1096.65 119.032 1099.09 115.928 1102.22 113.752C1105.42 111.512 1109.17 110.392 1113.45 110.392C1117.1 110.392 1120.24 111.16 1122.86 112.696C1125.55 114.168 1127.57 116.216 1128.91 118.84V94.84H1143.31V163H1129.58L1129.29 155.416C1127.89 158.168 1125.77 160.312 1122.96 161.848C1120.21 163.384 1117.04 164.152 1113.45 164.152ZM1118.16 153.112C1120.46 153.112 1122.41 152.504 1124.01 151.288C1125.61 150.072 1126.83 148.312 1127.66 146.008C1128.49 143.64 1128.91 140.728 1128.91 137.272C1128.91 133.752 1128.49 130.84 1127.66 128.536C1126.83 126.168 1125.61 124.408 1124.01 123.256C1122.41 122.04 1120.46 121.432 1118.16 121.432C1114.77 121.432 1112.08 122.872 1110.09 125.752C1108.11 128.568 1107.12 132.408 1107.12 137.272C1107.12 142.072 1108.11 145.912 1110.09 148.792C1112.14 151.672 1114.83 153.112 1118.16 153.112Z" fill="white"/>
<path d="M169.765 109.526L167.277 111.973L140.362 84.5988L142.851 82.152L145.298 84.6406L147.786 82.1937L150.233 84.6823L147.744 87.1291L169.765 109.526ZM120.328 118.979L103.201 101.559L100.712 104.005L117.84 121.425L120.328 118.979ZM160.146 79.8306L152.805 72.3649L150.317 74.8117L155.21 79.7889L150.233 84.6823L152.68 87.1708L160.146 79.8306ZM137.999 72.2394L142.893 77.2165L145.381 74.77L140.488 69.7929L137.999 72.2394ZM130.617 69.7091L135.511 74.6862L137.999 72.2394L133.106 67.2622L130.617 69.7091ZM123.235 67.1788L115.895 59.7129L91.009 84.1805L98.334 91.6307L100.823 89.1839L95.9444 84.2222L115.853 64.6482L120.747 69.6252L123.235 67.1788L128.129 72.1559L130.617 69.7091L125.724 64.7319L123.235 67.1788ZM98.3493 91.6463L95.8607 94.0928L103.201 101.559L105.69 99.112L98.3493 91.6463ZM145.381 74.77L147.828 77.2586L150.317 74.8117L147.87 72.3232L145.381 74.77ZM125.264 119.021L122.817 116.532L120.328 118.979L122.775 121.467L125.264 119.021ZM132.688 116.616L122.901 106.661L120.412 109.108L127.752 116.574L125.264 119.021L127.711 121.509L132.688 116.616ZM142.6 111.764L132.813 101.81L130.324 104.256L137.665 111.722L132.688 116.616L135.134 119.104L142.6 111.764ZM150.024 109.359L159.811 119.313L162.3 116.867L140.279 94.4694L137.79 96.9162L147.577 106.871L142.6 111.764L145.047 114.252L150.024 109.359ZM169.723 114.462L167.277 111.973L162.3 116.867L164.746 119.355L169.723 114.462Z" fill="white"/>
<path d="M228.389 148.051L232.066 146.69L234.789 154.044L220.081 159.491L221.442 163.167L217.766 164.529L215.042 157.175L229.75 151.728L228.389 148.051ZM228.389 148.051L227.027 144.374L223.35 145.736L224.712 149.413L228.389 148.051ZM223.35 145.736L221.988 142.059L218.311 143.42L219.673 147.097L223.35 145.736ZM218.311 143.42L216.95 139.743L213.273 141.105L214.634 144.782L218.311 143.42ZM213.273 141.105L211.911 137.428L208.234 138.789L209.596 142.466L213.273 141.105ZM208.234 138.789L206.872 135.112L203.195 136.474L204.557 140.151L208.234 138.789ZM203.195 136.474L201.833 132.797L198.156 134.158L199.518 137.835L203.195 136.474ZM198.156 134.158L196.795 130.482L193.118 131.843L194.479 135.52L198.156 134.158ZM193.118 131.843L191.756 128.166L188.079 129.528L189.44 133.205L193.118 131.843ZM188.079 129.528L186.717 125.851L183.04 127.212L184.402 130.889L188.079 129.528ZM179.363 128.574L183.04 127.212L181.679 123.535L178.001 124.897L176.64 121.22L172.962 122.581L196.111 185.092L203.465 182.369L202.103 178.692L198.426 180.053L179.363 128.574ZM205.372 164.937L206.734 168.614L210.411 167.252L209.05 163.575L205.372 164.937ZM204.419 173.653L208.096 172.291L206.734 168.614L203.057 169.976L204.419 173.653ZM202.103 178.692L205.78 177.33L204.419 173.653L200.741 175.014L202.103 178.692ZM210.411 167.252L213.135 174.607L216.812 173.245L214.089 165.891L210.411 167.252ZM216.812 173.245L219.535 180.599L223.212 179.238L220.489 171.883L216.812 173.245ZM234.243 175.152L231.52 167.798L227.843 169.16L230.566 176.514L234.243 175.152ZM227.843 169.16L225.12 161.806L221.442 163.167L224.166 170.522L227.843 169.16ZM224.574 182.915L231.928 180.191L230.566 176.514L223.212 179.238L224.574 182.915Z" fill="white"/>
</svg>
