<svg width="1234" height="250" viewBox="0 0 1234 250" fill="none" xmlns="http://www.w3.org/2000/svg">
<path d="M296.104 163V94.84H315.592L332.968 144.472L350.248 94.84H369.736V163H355.144V118.84L339.112 162.808H326.632L310.696 118.84V163H296.104ZM381.867 163V111.544H396.267V163H381.867ZM381.579 105.208V93.688H396.459V105.208H381.579ZM431.258 164.152C426.01 164.152 421.434 163.064 417.53 160.888C413.626 158.648 410.586 155.512 408.41 151.48C406.234 147.448 405.146 142.712 405.146 137.272C405.146 131.832 406.234 127.128 408.41 123.16C410.586 119.128 413.626 115.992 417.53 113.752C421.434 111.512 426.01 110.392 431.258 110.392C435.802 110.392 439.866 111.192 443.45 112.792C447.098 114.392 450.042 116.696 452.282 119.704C454.522 122.712 455.898 126.328 456.41 130.552L441.53 131.224C441.082 128.024 439.93 125.624 438.074 124.024C436.282 122.36 434.01 121.528 431.258 121.528C427.674 121.528 424.89 122.904 422.906 125.656C420.922 128.408 419.93 132.28 419.93 137.272C419.93 142.264 420.922 146.168 422.906 148.984C424.89 151.736 427.674 153.112 431.258 153.112C434.01 153.112 436.314 152.28 438.17 150.616C440.026 148.888 441.146 146.296 441.53 142.84L456.41 143.416C455.962 147.64 454.618 151.32 452.378 154.456C450.202 157.528 447.29 159.928 443.642 161.656C440.058 163.32 435.93 164.152 431.258 164.152ZM464.367 163V94.84H478.767V123.544H476.847C477.359 120.536 478.351 118.072 479.823 116.152C481.359 114.232 483.247 112.792 485.487 111.832C487.791 110.872 490.287 110.392 492.975 110.392C496.815 110.392 500.015 111.224 502.575 112.888C505.135 114.552 507.055 116.856 508.335 119.8C509.679 122.744 510.351 126.104 510.351 129.88V163H495.951V133.336C495.951 129.496 495.343 126.616 494.127 124.696C492.975 122.776 490.991 121.816 488.175 121.816C485.231 121.816 482.927 122.808 481.263 124.792C479.599 126.776 478.767 129.752 478.767 133.72V163H464.367ZM544.972 164.152C539.724 164.152 535.148 163.064 531.244 160.888C527.404 158.648 524.396 155.512 522.22 151.48C520.108 147.448 519.052 142.712 519.052 137.272C519.052 131.832 520.108 127.128 522.22 123.16C524.396 119.128 527.404 115.992 531.244 113.752C535.084 111.512 539.628 110.392 544.876 110.392C549.996 110.392 554.444 111.512 558.22 113.752C561.996 115.992 564.908 119.192 566.956 123.352C569.068 127.512 570.124 132.472 570.124 138.232V141.112H533.932C534.124 145.208 535.212 148.248 537.196 150.232C539.244 152.216 541.932 153.208 545.26 153.208C547.692 153.208 549.708 152.696 551.308 151.672C552.972 150.648 554.156 149.08 554.86 146.968L569.356 147.832C568.012 152.952 565.164 156.952 560.812 159.832C556.46 162.712 551.18 164.152 544.972 164.152ZM533.932 132.28H555.34C555.148 128.504 554.092 125.688 552.172 123.832C550.316 121.976 547.884 121.048 544.876 121.048C541.868 121.048 539.372 122.04 537.388 124.024C535.468 125.944 534.316 128.696 533.932 132.28ZM592.932 163C588.708 163 585.412 161.944 583.044 159.832C580.676 157.72 579.492 154.296 579.492 149.56V94.84H593.892V148.024C593.892 149.56 594.244 150.648 594.948 151.288C595.652 151.928 596.676 152.248 598.02 152.248H601.476V163H592.932ZM624.663 164.152C619.351 164.152 614.999 162.936 611.607 160.504C608.279 158.008 606.615 154.552 606.615 150.136C606.615 145.592 608.023 142.104 610.839 139.672C613.719 137.176 617.943 135.352 623.511 134.2L640.119 130.936C640.119 127.608 639.351 125.112 637.815 123.448C636.343 121.72 634.199 120.856 631.383 120.856C628.631 120.856 626.487 121.496 624.951 122.776C623.415 123.992 622.423 125.816 621.975 128.248L607.479 127.576C608.439 121.944 610.967 117.688 615.062 114.808C619.223 111.864 624.663 110.392 631.383 110.392C639.063 110.392 644.823 112.216 648.663 115.864C652.567 119.512 654.519 124.856 654.519 131.896V149.464C654.519 150.936 654.743 151.928 655.191 152.44C655.703 152.888 656.439 153.112 657.399 153.112H658.839V163C658.391 163.128 657.655 163.256 656.631 163.384C655.671 163.512 654.711 163.576 653.75 163.576C651.703 163.576 649.783 163.224 647.991 162.52C646.263 161.816 644.855 160.632 643.767 158.968C642.679 157.24 642.135 154.808 642.135 151.672L643.383 152.632C642.743 154.936 641.591 156.952 639.927 158.68C638.327 160.408 636.215 161.752 633.591 162.712C631.031 163.672 628.055 164.152 624.663 164.152ZM628.119 154.264C630.487 154.264 632.567 153.816 634.359 152.92C636.151 151.96 637.559 150.584 638.583 148.792C639.607 147 640.119 144.888 640.119 142.456V139.96L628.406 142.456C626.103 142.904 624.343 143.672 623.127 144.76C621.975 145.784 621.399 147.128 621.399 148.792C621.399 150.52 621.975 151.864 623.127 152.824C624.279 153.784 625.943 154.264 628.119 154.264ZM666.398 163V111.544H679.359L679.935 126.616L678.111 126.136C678.623 122.296 679.647 119.224 681.183 116.92C682.783 114.616 684.767 112.952 687.135 111.928C689.503 110.904 692.095 110.392 694.911 110.392C698.623 110.392 701.759 111.192 704.319 112.792C706.943 114.392 708.927 116.664 710.271 119.608C711.679 122.488 712.383 125.912 712.383 129.88V163H697.983V134.68C697.983 131.928 697.759 129.592 697.311 127.672C696.863 125.752 696.063 124.312 694.911 123.352C693.759 122.328 692.159 121.816 690.111 121.816C687.103 121.816 684.799 122.936 683.199 125.176C681.599 127.352 680.799 130.52 680.799 134.68V163H666.398ZM746.907 178.552C741.979 178.552 737.851 177.944 734.523 176.728C731.259 175.512 728.635 173.816 726.651 171.64C724.731 169.464 723.387 166.968 722.619 164.152L737.403 163.096C737.915 164.76 738.875 166.072 740.283 167.032C741.755 167.992 743.963 168.472 746.907 168.472C750.363 168.472 752.987 167.64 754.779 165.976C756.635 164.376 757.563 161.784 757.563 158.2V152.728C756.347 155.096 754.395 157.016 751.707 158.488C749.019 159.896 746.011 160.6 742.683 160.6C738.459 160.6 734.715 159.576 731.451 157.528C728.187 155.416 725.627 152.504 723.771 148.792C721.979 145.016 721.083 140.6 721.083 135.544C721.083 130.616 721.979 126.264 723.771 122.488C725.627 118.712 728.155 115.768 731.355 113.656C734.619 111.48 738.331 110.392 742.491 110.392C746.267 110.392 749.435 111.224 751.995 112.888C754.619 114.552 756.603 116.76 757.947 119.512V111.544H772.059V157.912C772.059 162.52 771.003 166.328 768.891 169.336C766.779 172.408 763.835 174.712 760.059 176.248C756.283 177.784 751.899 178.552 746.907 178.552ZM746.811 149.944C750.139 149.944 752.763 148.664 754.683 146.104C756.667 143.544 757.659 139.992 757.659 135.448C757.659 132.44 757.211 129.848 756.315 127.672C755.483 125.496 754.235 123.832 752.571 122.68C750.971 121.528 749.051 120.952 746.811 120.952C743.355 120.952 740.667 122.264 738.747 124.888C736.827 127.512 735.867 131.032 735.867 135.448C735.867 139.928 736.859 143.48 738.843 146.104C740.827 148.664 743.483 149.944 746.811 149.944ZM806.91 164.152C801.662 164.152 797.086 163.064 793.182 160.888C789.342 158.648 786.334 155.512 784.158 151.48C782.046 147.448 780.99 142.712 780.99 137.272C780.99 131.832 782.046 127.128 784.158 123.16C786.334 119.128 789.342 115.992 793.182 113.752C797.022 111.512 801.566 110.392 806.814 110.392C811.934 110.392 816.382 111.512 820.158 113.752C823.934 115.992 826.846 119.192 828.894 123.352C831.006 127.512 832.062 132.472 832.062 138.232V141.112H795.87C796.062 145.208 797.15 148.248 799.134 150.232C801.182 152.216 803.87 153.208 807.198 153.208C809.63 153.208 811.646 152.696 813.246 151.672C814.91 150.648 816.094 149.08 816.798 146.968L831.294 147.832C829.95 152.952 827.102 156.952 822.75 159.832C818.398 162.712 813.118 164.152 806.91 164.152ZM795.87 132.28H817.278C817.086 128.504 816.03 125.688 814.11 123.832C812.254 121.976 809.822 121.048 806.814 121.048C803.806 121.048 801.31 122.04 799.326 124.024C797.406 125.944 796.254 128.696 795.87 132.28ZM854.87 163C850.646 163 847.35 161.944 844.982 159.832C842.614 157.72 841.43 154.296 841.43 149.56V94.84H855.83V148.024C855.83 149.56 856.182 150.648 856.886 151.288C857.59 151.928 858.614 152.248 859.958 152.248H863.414V163H854.87ZM893.914 164.152C888.666 164.152 884.09 163.064 880.186 160.888C876.282 158.648 873.242 155.512 871.066 151.48C868.89 147.448 867.802 142.712 867.802 137.272C867.802 131.832 868.89 127.128 871.066 123.16C873.242 119.128 876.282 115.992 880.186 113.752C884.09 111.512 888.666 110.392 893.914 110.392C899.162 110.392 903.738 111.512 907.642 113.752C911.546 115.992 914.586 119.128 916.762 123.16C918.938 127.128 920.026 131.832 920.026 137.272C920.026 142.712 918.938 147.448 916.762 151.48C914.586 155.512 911.546 158.648 907.642 160.888C903.738 163.064 899.162 164.152 893.914 164.152ZM893.914 153.112C897.498 153.112 900.282 151.736 902.266 148.984C904.25 146.168 905.242 142.264 905.242 137.272C905.242 132.28 904.25 128.408 902.266 125.656C900.282 122.84 897.498 121.432 893.914 121.432C890.33 121.432 887.546 122.84 885.562 125.656C883.578 128.408 882.586 132.28 882.586 137.272C882.586 142.264 883.578 146.168 885.562 148.984C887.546 151.736 890.33 153.112 893.914 153.112ZM927.146 163V148.312H942.794V163H927.146ZM965.12 163C960.896 163 957.6 161.944 955.232 159.832C952.864 157.72 951.68 154.296 951.68 149.56V94.84H966.08V148.024C966.08 149.56 966.432 150.648 967.136 151.288C967.84 151.928 968.864 152.248 970.208 152.248H973.664V163H965.12ZM996.85 164.152C991.538 164.152 987.186 162.936 983.794 160.504C980.466 158.008 978.802 154.552 978.802 150.136C978.802 145.592 980.21 142.104 983.026 139.672C985.906 137.176 990.13 135.352 995.698 134.2L1012.31 130.936C1012.31 127.608 1011.54 125.112 1010 123.448C1008.53 121.72 1006.39 120.856 1003.57 120.856C1000.82 120.856 998.674 121.496 997.138 122.776C995.602 123.992 994.61 125.816 994.162 128.248L979.666 127.576C980.626 121.944 983.154 117.688 987.25 114.808C991.41 111.864 996.85 110.392 1003.57 110.392C1011.25 110.392 1017.01 112.216 1020.85 115.864C1024.75 119.512 1026.71 124.856 1026.71 131.896V149.464C1026.71 150.936 1026.93 151.928 1027.38 152.44C1027.89 152.888 1028.63 153.112 1029.59 153.112H1031.03V163C1030.58 163.128 1029.84 163.256 1028.82 163.384C1027.86 163.512 1026.9 163.576 1025.94 163.576C1023.89 163.576 1021.97 163.224 1020.18 162.52C1018.45 161.816 1017.04 160.632 1015.95 158.968C1014.87 157.24 1014.32 154.808 1014.32 151.672L1015.57 152.632C1014.93 154.936 1013.78 156.952 1012.11 158.68C1010.51 160.408 1008.4 161.752 1005.78 162.712C1003.22 163.672 1000.24 164.152 996.85 164.152ZM1000.31 154.264C1002.67 154.264 1004.75 153.816 1006.55 152.92C1008.34 151.96 1009.75 150.584 1010.77 148.792C1011.79 147 1012.31 144.888 1012.31 142.456V139.96L1000.59 142.456C998.29 142.904 996.53 143.672 995.314 144.76C994.162 145.784 993.586 147.128 993.586 148.792C993.586 150.52 994.162 151.864 995.314 152.824C996.466 153.784 998.13 154.264 1000.31 154.264ZM1038.59 163V111.544H1051.55L1052.12 126.616L1050.3 126.136C1050.81 122.296 1051.83 119.224 1053.37 116.92C1054.97 114.616 1056.95 112.952 1059.32 111.928C1061.69 110.904 1064.28 110.392 1067.1 110.392C1070.81 110.392 1073.95 111.192 1076.51 112.792C1079.13 114.392 1081.11 116.664 1082.46 119.608C1083.87 122.488 1084.57 125.912 1084.57 129.88V163H1070.17V134.68C1070.17 131.928 1069.95 129.592 1069.5 127.672C1069.05 125.752 1068.25 124.312 1067.1 123.352C1065.95 122.328 1064.35 121.816 1062.3 121.816C1059.29 121.816 1056.99 122.936 1055.39 125.176C1053.79 127.352 1052.99 130.52 1052.99 134.68V163H1038.59ZM1114.39 164.152C1110.04 164.152 1106.26 163.064 1103.06 160.888C1099.93 158.648 1097.49 155.544 1095.77 151.576C1094.1 147.544 1093.27 142.776 1093.27 137.272C1093.27 131.768 1094.13 127.032 1095.86 123.064C1097.59 119.032 1100.02 115.928 1103.16 113.752C1106.36 111.512 1110.1 110.392 1114.39 110.392C1118.04 110.392 1121.17 111.16 1123.8 112.696C1126.49 114.168 1128.5 116.216 1129.85 118.84V94.84H1144.25V163H1130.52L1130.23 155.416C1128.82 158.168 1126.71 160.312 1123.89 161.848C1121.14 163.384 1117.97 164.152 1114.39 164.152ZM1119.09 153.112C1121.4 153.112 1123.35 152.504 1124.95 151.288C1126.55 150.072 1127.77 148.312 1128.6 146.008C1129.43 143.64 1129.85 140.728 1129.85 137.272C1129.85 133.752 1129.43 130.84 1128.6 128.536C1127.77 126.168 1126.55 124.408 1124.95 123.256C1123.35 122.04 1121.4 121.432 1119.09 121.432C1115.7 121.432 1113.01 122.872 1111.03 125.752C1109.05 128.568 1108.05 132.408 1108.05 137.272C1108.05 142.072 1109.05 145.912 1111.03 148.792C1113.08 151.672 1115.77 153.112 1119.09 153.112Z" fill="black"/>
<path d="M169.765 109.526L167.277 111.973L140.362 84.5988L142.851 82.152L145.298 84.6406L147.786 82.1937L150.233 84.6823L147.744 87.1291L169.765 109.526ZM120.328 118.979L103.201 101.559L100.712 104.005L117.84 121.425L120.328 118.979ZM160.146 79.8306L152.805 72.3649L150.317 74.8117L155.21 79.7889L150.233 84.6823L152.68 87.1708L160.146 79.8306ZM137.999 72.2394L142.893 77.2165L145.381 74.77L140.488 69.7929L137.999 72.2394ZM130.617 69.7091L135.511 74.6862L137.999 72.2394L133.106 67.2622L130.617 69.7091ZM123.235 67.1788L115.895 59.7129L91.009 84.1805L98.334 91.6307L100.823 89.1839L95.9444 84.2222L115.853 64.6482L120.747 69.6252L123.235 67.1788L128.129 72.1559L130.617 69.7091L125.724 64.7319L123.235 67.1788ZM98.3493 91.6463L95.8607 94.0928L103.201 101.559L105.69 99.112L98.3493 91.6463ZM145.381 74.77L147.828 77.2586L150.317 74.8117L147.87 72.3232L145.381 74.77ZM125.264 119.021L122.817 116.532L120.328 118.979L122.775 121.467L125.264 119.021ZM132.688 116.616L122.901 106.661L120.412 109.108L127.752 116.574L125.264 119.021L127.711 121.509L132.688 116.616ZM142.6 111.764L132.813 101.81L130.324 104.256L137.665 111.722L132.688 116.616L135.134 119.104L142.6 111.764ZM150.024 109.359L159.811 119.313L162.3 116.867L140.279 94.4694L137.79 96.9162L147.577 106.871L142.6 111.764L145.047 114.252L150.024 109.359ZM169.723 114.462L167.277 111.973L162.3 116.867L164.746 119.355L169.723 114.462Z" fill="black"/>
<path d="M228.389 148.051L232.066 146.69L234.789 154.044L220.081 159.491L221.442 163.167L217.766 164.529L215.042 157.175L229.75 151.728L228.389 148.051ZM228.389 148.051L227.027 144.374L223.35 145.736L224.712 149.413L228.389 148.051ZM223.35 145.736L221.988 142.059L218.311 143.42L219.673 147.097L223.35 145.736ZM218.311 143.42L216.95 139.743L213.273 141.105L214.634 144.782L218.311 143.42ZM213.273 141.105L211.911 137.428L208.234 138.789L209.596 142.466L213.273 141.105ZM208.234 138.789L206.872 135.112L203.195 136.474L204.557 140.151L208.234 138.789ZM203.195 136.474L201.833 132.797L198.156 134.158L199.518 137.835L203.195 136.474ZM198.156 134.158L196.795 130.482L193.118 131.843L194.479 135.52L198.156 134.158ZM193.118 131.843L191.756 128.166L188.079 129.528L189.44 133.205L193.118 131.843ZM188.079 129.528L186.717 125.851L183.04 127.212L184.402 130.889L188.079 129.528ZM179.363 128.574L183.04 127.212L181.679 123.535L178.001 124.897L176.64 121.22L172.962 122.581L196.111 185.092L203.465 182.369L202.103 178.692L198.426 180.053L179.363 128.574ZM205.372 164.937L206.734 168.614L210.411 167.252L209.05 163.575L205.372 164.937ZM204.419 173.653L208.096 172.291L206.734 168.614L203.057 169.976L204.419 173.653ZM202.103 178.692L205.78 177.33L204.419 173.653L200.741 175.014L202.103 178.692ZM210.411 167.252L213.135 174.607L216.812 173.245L214.089 165.891L210.411 167.252ZM216.812 173.245L219.535 180.599L223.212 179.238L220.489 171.883L216.812 173.245ZM234.243 175.152L231.52 167.798L227.843 169.16L230.566 176.514L234.243 175.152ZM227.843 169.16L225.119 161.806L221.442 163.167L224.166 170.522L227.843 169.16ZM224.574 182.915L231.928 180.191L230.566 176.514L223.212 179.238L224.574 182.915Z" fill="black"/>
</svg>
