<svg width="1280" height="832" viewBox="0 0 1280 832" fill="none" xmlns="http://www.w3.org/2000/svg">
<rect width="1280" height="832" rx="32" fill="white"/>
<rect x="11" y="11" width="1258" height="810" rx="32" fill="black"/>
<path d="M624.457 470.649L619.929 463.943L611.178 463.868L571.287 450.195L543.358 475.588L547.62 486.646L554.195 500.059L575.249 523.575L584 523.649L594.029 520.4L607.421 513.846L615.178 508.285L634.034 520.739L640.758 514.128L606.481 477.164L619.816 477.277L624.457 470.649Z" fill="black"/>
<path d="M644.12 510.823L640.758 514.128L604.398 477.147L607.76 473.841L611.065 477.203L614.427 473.898L617.733 477.26L614.371 480.565L644.12 510.823ZM577.333 523.592L554.195 500.059L550.833 503.364L573.971 526.898L577.333 523.592ZM631.124 470.705L621.208 460.619L617.846 463.925L624.457 470.649L617.733 477.26L621.038 480.622L631.124 470.705ZM601.206 460.45L607.816 467.174L611.178 463.868L604.567 457.144L601.206 460.45ZM591.233 457.031L597.844 463.755L601.206 460.45L594.595 453.726L591.233 457.031ZM581.26 453.613L571.343 443.527L537.724 476.582L547.62 486.646L550.982 483.341L544.391 476.638L571.287 450.194L577.898 456.918L581.26 453.613L587.871 460.337L591.233 457.031L584.622 450.307L581.26 453.613ZM547.64 486.667L544.278 489.973L554.195 500.059L557.557 496.753L547.64 486.667ZM611.178 463.868L614.484 467.23L617.846 463.925L614.54 460.563L611.178 463.868ZM584 523.649L580.695 520.287L577.333 523.592L580.638 526.954L584 523.649ZM594.03 520.4L580.808 506.952L577.446 510.258L587.362 520.343L584 523.649L587.306 527.011L594.03 520.4ZM607.421 513.846L594.199 500.398L590.837 503.703L600.753 513.789L594.03 520.4L597.335 523.762L607.421 513.846ZM617.45 510.597L630.672 524.045L634.034 520.739L604.285 490.481L600.923 493.787L614.145 507.235L607.421 513.846L610.726 517.208L617.45 510.597ZM644.063 517.49L640.758 514.128L634.034 520.739L637.339 524.101L644.063 517.49Z" fill="white"/>
<path d="M653.785 535.995L661.431 535.95L721.873 563.724L726.206 569.782L706.602 577.041L708.871 583.167L712.614 583.871L721.145 591.858L724.775 601.66L714.973 605.289L697.912 589.315L693.011 591.13L686.839 604.562L680.974 608.475L653.785 535.995Z" fill="black"/>
<path d="M721.873 563.724L726.773 561.909L730.403 571.711L710.8 578.97L712.614 583.871L707.714 585.686L704.084 575.884L723.687 568.625L721.873 563.724ZM721.873 563.724L720.058 558.823L715.157 560.638L716.972 565.539L721.873 563.724ZM715.157 560.638L713.342 555.737L708.441 557.552L710.256 562.453L715.157 560.638ZM708.441 557.552L706.626 552.651L701.726 554.466L703.54 559.367L708.441 557.552ZM701.726 554.466L699.911 549.565L695.01 551.38L696.825 556.281L701.726 554.466ZM695.01 551.38L693.195 546.479L688.294 548.294L690.109 553.195L695.01 551.38ZM688.294 548.294L686.479 543.393L681.578 545.208L683.393 550.109L688.294 548.294ZM681.578 545.208L679.764 540.307L674.863 542.122L676.678 547.023L681.578 545.208ZM674.863 542.122L673.048 537.221L668.147 539.036L669.962 543.937L674.863 542.122ZM668.147 539.036L666.332 534.135L661.431 535.95L663.246 540.851L668.147 539.036ZM656.531 537.765L661.431 535.95L659.617 531.049L654.716 532.864L652.901 527.963L648 529.778L678.852 613.092L688.654 609.463L686.839 604.562L681.938 606.377L656.531 537.765ZM691.196 586.23L693.011 591.131L697.912 589.316L696.097 584.415L691.196 586.23ZM689.925 597.846L694.826 596.031L693.011 591.131L688.11 592.945L689.925 597.846ZM686.839 604.562L691.74 602.747L689.925 597.846L685.024 599.661L686.839 604.562ZM697.912 589.316L701.542 599.117L706.442 597.303L702.813 587.501L697.912 589.316ZM706.442 597.303L710.072 607.104L714.973 605.289L711.343 595.488L706.442 597.303ZM729.676 599.845L726.046 590.043L721.145 591.858L724.775 601.66L729.676 599.845ZM721.145 591.858L717.515 582.056L712.614 583.871L716.244 593.673L721.145 591.858ZM716.788 610.19L726.589 606.561L724.775 601.66L714.973 605.289L716.788 610.19Z" fill="white"/>
<path d="M221.336 368V316.544H234.296L234.776 328.928L233.432 328.352C234.136 325.6 235.192 323.264 236.6 321.344C238.072 319.424 239.832 317.952 241.88 316.928C243.928 315.904 246.168 315.392 248.6 315.392C252.888 315.392 256.344 316.64 258.968 319.136C261.656 321.632 263.384 324.992 264.152 329.216L262.328 329.312C262.904 326.304 263.896 323.776 265.304 321.728C266.776 319.616 268.568 318.048 270.68 317.024C272.792 315.936 275.16 315.392 277.784 315.392C281.368 315.392 284.44 316.128 287 317.6C289.56 319.072 291.544 321.28 292.952 324.224C294.36 327.104 295.064 330.656 295.064 334.88V368H280.664V338.912C280.664 334.88 280.056 331.872 278.84 329.888C277.624 327.84 275.64 326.816 272.888 326.816C271.16 326.816 269.688 327.296 268.472 328.256C267.256 329.216 266.296 330.624 265.592 332.48C264.952 334.272 264.632 336.48 264.632 339.104V368H251.672V339.104C251.672 335.136 251.096 332.096 249.944 329.984C248.792 327.872 246.808 326.816 243.992 326.816C242.264 326.816 240.76 327.296 239.48 328.256C238.264 329.216 237.336 330.624 236.696 332.48C236.056 334.336 235.736 336.544 235.736 339.104V368H221.336ZM306.93 368V316.544H321.33V368H306.93ZM306.642 310.208V298.688H321.522V310.208H306.642ZM356.32 369.152C351.072 369.152 346.496 368.064 342.592 365.888C338.688 363.648 335.648 360.512 333.472 356.48C331.296 352.448 330.208 347.712 330.208 342.272C330.208 336.832 331.296 332.128 333.472 328.16C335.648 324.128 338.688 320.992 342.592 318.752C346.496 316.512 351.072 315.392 356.32 315.392C360.864 315.392 364.928 316.192 368.512 317.792C372.16 319.392 375.104 321.696 377.344 324.704C379.584 327.712 380.96 331.328 381.472 335.552L366.592 336.224C366.144 333.024 364.992 330.624 363.136 329.024C361.344 327.36 359.072 326.528 356.32 326.528C352.736 326.528 349.952 327.904 347.968 330.656C345.984 333.408 344.992 337.28 344.992 342.272C344.992 347.264 345.984 351.168 347.968 353.984C349.952 356.736 352.736 358.112 356.32 358.112C359.072 358.112 361.376 357.28 363.232 355.616C365.088 353.888 366.208 351.296 366.592 347.84L381.472 348.416C381.024 352.64 379.68 356.32 377.44 359.456C375.264 362.528 372.352 364.928 368.704 366.656C365.12 368.32 360.992 369.152 356.32 369.152ZM389.43 368V299.84H403.83V328.544H401.91C402.422 325.536 403.414 323.072 404.886 321.152C406.422 319.232 408.31 317.792 410.55 316.832C412.854 315.872 415.35 315.392 418.038 315.392C421.878 315.392 425.078 316.224 427.638 317.888C430.198 319.552 432.118 321.856 433.398 324.8C434.742 327.744 435.414 331.104 435.414 334.88V368H421.014V338.336C421.014 334.496 420.406 331.616 419.19 329.696C418.038 327.776 416.054 326.816 413.238 326.816C410.294 326.816 407.99 327.808 406.326 329.792C404.662 331.776 403.83 334.752 403.83 338.72V368H389.43ZM470.035 369.152C464.787 369.152 460.211 368.064 456.307 365.888C452.467 363.648 449.459 360.512 447.283 356.48C445.171 352.448 444.115 347.712 444.115 342.272C444.115 336.832 445.171 332.128 447.283 328.16C449.459 324.128 452.467 320.992 456.307 318.752C460.147 316.512 464.691 315.392 469.939 315.392C475.059 315.392 479.507 316.512 483.283 318.752C487.059 320.992 489.971 324.192 492.019 328.352C494.131 332.512 495.187 337.472 495.187 343.232V346.112H458.995C459.187 350.208 460.275 353.248 462.259 355.232C464.307 357.216 466.995 358.208 470.323 358.208C472.755 358.208 474.771 357.696 476.371 356.672C478.035 355.648 479.219 354.08 479.923 351.968L494.419 352.832C493.075 357.952 490.227 361.952 485.875 364.832C481.523 367.712 476.243 369.152 470.035 369.152ZM458.995 337.28H480.403C480.211 333.504 479.155 330.688 477.235 328.832C475.379 326.976 472.947 326.048 469.939 326.048C466.931 326.048 464.435 327.04 462.451 329.024C460.531 330.944 459.379 333.696 458.995 337.28ZM517.995 368C513.771 368 510.475 366.944 508.107 364.832C505.739 362.72 504.555 359.296 504.555 354.56V299.84H518.955V353.024C518.955 354.56 519.307 355.648 520.011 356.288C520.715 356.928 521.739 357.248 523.083 357.248H526.539V368H517.995ZM549.725 369.152C544.413 369.152 540.061 367.936 536.669 365.504C533.341 363.008 531.677 359.552 531.677 355.136C531.677 350.592 533.085 347.104 535.901 344.672C538.781 342.176 543.005 340.352 548.573 339.2L565.181 335.936C565.181 332.608 564.413 330.112 562.877 328.448C561.405 326.72 559.261 325.856 556.445 325.856C553.693 325.856 551.549 326.496 550.013 327.776C548.477 328.992 547.485 330.816 547.037 333.248L532.541 332.576C533.501 326.944 536.029 322.688 540.125 319.808C544.285 316.864 549.725 315.392 556.445 315.392C564.125 315.392 569.885 317.216 573.725 320.864C577.629 324.512 579.581 329.856 579.581 336.896V354.464C579.581 355.936 579.805 356.928 580.253 357.44C580.765 357.888 581.501 358.112 582.461 358.112H583.901V368C583.453 368.128 582.717 368.256 581.693 368.384C580.733 368.512 579.773 368.576 578.813 368.576C576.765 368.576 574.845 368.224 573.053 367.52C571.325 366.816 569.917 365.632 568.829 363.968C567.741 362.24 567.197 359.808 567.197 356.672L568.445 357.632C567.805 359.936 566.653 361.952 564.989 363.68C563.389 365.408 561.277 366.752 558.653 367.712C556.093 368.672 553.117 369.152 549.725 369.152ZM553.181 359.264C555.549 359.264 557.629 358.816 559.421 357.92C561.213 356.96 562.621 355.584 563.645 353.792C564.669 352 565.181 349.888 565.181 347.456V344.96L553.469 347.456C551.165 347.904 549.405 348.672 548.189 349.76C547.037 350.784 546.461 352.128 546.461 353.792C546.461 355.52 547.037 356.864 548.189 357.824C549.341 358.784 551.005 359.264 553.181 359.264ZM591.461 368V316.544H604.421L604.997 331.616L603.173 331.136C603.685 327.296 604.709 324.224 606.245 321.92C607.845 319.616 609.829 317.952 612.197 316.928C614.565 315.904 617.157 315.392 619.973 315.392C623.685 315.392 626.821 316.192 629.381 317.792C632.005 319.392 633.989 321.664 635.333 324.608C636.741 327.488 637.445 330.912 637.445 334.88V368H623.045V339.68C623.045 336.928 622.821 334.592 622.373 332.672C621.925 330.752 621.125 329.312 619.973 328.352C618.821 327.328 617.221 326.816 615.173 326.816C612.165 326.816 609.861 327.936 608.261 330.176C606.661 332.352 605.861 335.52 605.861 339.68V368H591.461ZM671.97 383.552C667.042 383.552 662.914 382.944 659.586 381.728C656.322 380.512 653.698 378.816 651.714 376.64C649.794 374.464 648.45 371.968 647.682 369.152L662.466 368.096C662.978 369.76 663.938 371.072 665.346 372.032C666.818 372.992 669.026 373.472 671.97 373.472C675.426 373.472 678.05 372.64 679.842 370.976C681.698 369.376 682.626 366.784 682.626 363.2V357.728C681.41 360.096 679.458 362.016 676.77 363.488C674.082 364.896 671.074 365.6 667.746 365.6C663.522 365.6 659.778 364.576 656.514 362.528C653.25 360.416 650.69 357.504 648.834 353.792C647.042 350.016 646.146 345.6 646.146 340.544C646.146 335.616 647.042 331.264 648.834 327.488C650.69 323.712 653.218 320.768 656.418 318.656C659.682 316.48 663.394 315.392 667.554 315.392C671.33 315.392 674.498 316.224 677.058 317.888C679.682 319.552 681.666 321.76 683.01 324.512V316.544H697.122V362.912C697.122 367.52 696.066 371.328 693.954 374.336C691.842 377.408 688.898 379.712 685.122 381.248C681.346 382.784 676.962 383.552 671.97 383.552ZM671.874 354.944C675.202 354.944 677.826 353.664 679.746 351.104C681.73 348.544 682.722 344.992 682.722 340.448C682.722 337.44 682.274 334.848 681.378 332.672C680.546 330.496 679.298 328.832 677.634 327.68C676.034 326.528 674.114 325.952 671.874 325.952C668.418 325.952 665.73 327.264 663.81 329.888C661.89 332.512 660.93 336.032 660.93 340.448C660.93 344.928 661.922 348.48 663.906 351.104C665.89 353.664 668.546 354.944 671.874 354.944ZM731.972 369.152C726.724 369.152 722.148 368.064 718.244 365.888C714.404 363.648 711.396 360.512 709.22 356.48C707.108 352.448 706.052 347.712 706.052 342.272C706.052 336.832 707.108 332.128 709.22 328.16C711.396 324.128 714.404 320.992 718.244 318.752C722.084 316.512 726.628 315.392 731.876 315.392C736.996 315.392 741.444 316.512 745.22 318.752C748.996 320.992 751.908 324.192 753.956 328.352C756.068 332.512 757.124 337.472 757.124 343.232V346.112H720.932C721.124 350.208 722.212 353.248 724.196 355.232C726.244 357.216 728.932 358.208 732.26 358.208C734.692 358.208 736.708 357.696 738.308 356.672C739.972 355.648 741.156 354.08 741.86 351.968L756.356 352.832C755.012 357.952 752.164 361.952 747.812 364.832C743.46 367.712 738.18 369.152 731.972 369.152ZM720.932 337.28H742.34C742.148 333.504 741.092 330.688 739.172 328.832C737.316 326.976 734.884 326.048 731.876 326.048C728.868 326.048 726.372 327.04 724.388 329.024C722.468 330.944 721.316 333.696 720.932 337.28ZM779.932 368C775.708 368 772.412 366.944 770.044 364.832C767.676 362.72 766.492 359.296 766.492 354.56V299.84H780.892V353.024C780.892 354.56 781.244 355.648 781.948 356.288C782.652 356.928 783.676 357.248 785.02 357.248H788.476V368H779.932ZM818.977 369.152C813.729 369.152 809.153 368.064 805.249 365.888C801.345 363.648 798.305 360.512 796.129 356.48C793.953 352.448 792.865 347.712 792.865 342.272C792.865 336.832 793.953 332.128 796.129 328.16C798.305 324.128 801.345 320.992 805.249 318.752C809.153 316.512 813.729 315.392 818.977 315.392C824.225 315.392 828.801 316.512 832.705 318.752C836.609 320.992 839.649 324.128 841.825 328.16C844.001 332.128 845.089 336.832 845.089 342.272C845.089 347.712 844.001 352.448 841.825 356.48C839.649 360.512 836.609 363.648 832.705 365.888C828.801 368.064 824.225 369.152 818.977 369.152ZM818.977 358.112C822.561 358.112 825.345 356.736 827.329 353.984C829.313 351.168 830.305 347.264 830.305 342.272C830.305 337.28 829.313 333.408 827.329 330.656C825.345 327.84 822.561 326.432 818.977 326.432C815.393 326.432 812.609 327.84 810.625 330.656C808.641 333.408 807.649 337.28 807.649 342.272C807.649 347.264 808.641 351.168 810.625 353.984C812.609 356.736 815.393 358.112 818.977 358.112ZM852.208 368V353.312H867.856V368H852.208ZM890.182 368C885.958 368 882.662 366.944 880.294 364.832C877.926 362.72 876.742 359.296 876.742 354.56V299.84H891.142V353.024C891.142 354.56 891.494 355.648 892.198 356.288C892.902 356.928 893.926 357.248 895.27 357.248H898.726V368H890.182ZM921.913 369.152C916.601 369.152 912.249 367.936 908.857 365.504C905.529 363.008 903.865 359.552 903.865 355.136C903.865 350.592 905.273 347.104 908.089 344.672C910.969 342.176 915.193 340.352 920.761 339.2L937.369 335.936C937.369 332.608 936.601 330.112 935.065 328.448C933.593 326.72 931.449 325.856 928.633 325.856C925.881 325.856 923.737 326.496 922.201 327.776C920.665 328.992 919.673 330.816 919.225 333.248L904.729 332.576C905.689 326.944 908.217 322.688 912.312 319.808C916.473 316.864 921.913 315.392 928.633 315.392C936.313 315.392 942.073 317.216 945.913 320.864C949.817 324.512 951.769 329.856 951.769 336.896V354.464C951.769 355.936 951.993 356.928 952.441 357.44C952.953 357.888 953.689 358.112 954.649 358.112H956.089V368C955.641 368.128 954.905 368.256 953.881 368.384C952.921 368.512 951.961 368.576 951 368.576C948.953 368.576 947.033 368.224 945.241 367.52C943.513 366.816 942.105 365.632 941.017 363.968C939.929 362.24 939.385 359.808 939.385 356.672L940.633 357.632C939.993 359.936 938.841 361.952 937.177 363.68C935.577 365.408 933.465 366.752 930.841 367.712C928.281 368.672 925.305 369.152 921.913 369.152ZM925.369 359.264C927.737 359.264 929.817 358.816 931.609 357.92C933.401 356.96 934.809 355.584 935.833 353.792C936.857 352 937.369 349.888 937.369 347.456V344.96L925.656 347.456C923.353 347.904 921.593 348.672 920.377 349.76C919.225 350.784 918.649 352.128 918.649 353.792C918.649 355.52 919.225 356.864 920.377 357.824C921.529 358.784 923.193 359.264 925.369 359.264ZM963.648 368V316.544H976.609L977.185 331.616L975.361 331.136C975.873 327.296 976.897 324.224 978.433 321.92C980.033 319.616 982.017 317.952 984.385 316.928C986.753 315.904 989.345 315.392 992.161 315.392C995.873 315.392 999.009 316.192 1001.57 317.792C1004.19 319.392 1006.18 321.664 1007.52 324.608C1008.93 327.488 1009.63 330.912 1009.63 334.88V368H995.233V339.68C995.233 336.928 995.009 334.592 994.561 332.672C994.113 330.752 993.313 329.312 992.161 328.352C991.009 327.328 989.409 326.816 987.361 326.816C984.353 326.816 982.049 327.936 980.449 330.176C978.849 332.352 978.049 335.52 978.049 339.68V368H963.648ZM1039.45 369.152C1035.1 369.152 1031.33 368.064 1028.13 365.888C1024.99 363.648 1022.56 360.544 1020.83 356.576C1019.17 352.544 1018.33 347.776 1018.33 342.272C1018.33 336.768 1019.2 332.032 1020.93 328.064C1022.65 324.032 1025.09 320.928 1028.22 318.752C1031.42 316.512 1035.17 315.392 1039.45 315.392C1043.1 315.392 1046.24 316.16 1048.86 317.696C1051.55 319.168 1053.57 321.216 1054.91 323.84V299.84H1069.31V368H1055.58L1055.29 360.416C1053.89 363.168 1051.77 365.312 1048.96 366.848C1046.21 368.384 1043.04 369.152 1039.45 369.152ZM1044.16 358.112C1046.46 358.112 1048.41 357.504 1050.01 356.288C1051.61 355.072 1052.83 353.312 1053.66 351.008C1054.49 348.64 1054.91 345.728 1054.91 342.272C1054.91 338.752 1054.49 335.84 1053.66 333.536C1052.83 331.168 1051.61 329.408 1050.01 328.256C1048.41 327.04 1046.46 326.432 1044.16 326.432C1040.77 326.432 1038.08 327.872 1036.09 330.752C1034.11 333.568 1033.12 337.408 1033.12 342.272C1033.12 347.072 1034.11 350.912 1036.09 353.792C1038.14 356.672 1040.83 358.112 1044.16 358.112Z" fill="white"/>
</svg>
